<?xml version="1.0" encoding="utf-8"?>
<!-- Generator: Adobe Illustrator 26.0.1, SVG Export Plug-In . SVG Version: 6.00 Build 0)  -->
<svg version="1.1" xmlns="http://www.w3.org/2000/svg" xmlns:xlink="http://www.w3.org/1999/xlink" x="0px" y="0px"
	 viewBox="0 0 1080 1920" style="enable-background:new 0 0 1080 1920;" xml:space="preserve">
<style type="text/css">
	.st0{fill:#80D6CC;stroke:#000000;stroke-width:12;stroke-miterlimit:10;}
	.st1{fill:#4A586D;stroke:#000000;stroke-width:12;stroke-miterlimit:10;}
	.st2{fill:#1300E9;stroke:#000000;stroke-width:12;stroke-miterlimit:10;}
	.st3{fill:#D40005;stroke:#000000;stroke-width:12;stroke-miterlimit:10;}
	.st4{fill:#FFFFFF;stroke:#000000;stroke-width:12;stroke-miterlimit:10;}
	.st5{fill:#FFFFFF;stroke:#000000;stroke-width:11;stroke-miterlimit:10;}
	.st6{fill:none;stroke:#000000;stroke-width:11;stroke-miterlimit:10;}
	.st7{fill:none;stroke:#000000;stroke-width:12;stroke-miterlimit:10;}
</style>
<g id="taivas">
	<rect x="124.5" y="987.5" class="st0" width="872" height="518"/>
</g>
<g id="maa">
	<path class="st1" d="M128,1505c4.25-12.26,19.09-49.94,59-75c55.62-34.92,114.47-16.79,123-14c19.39-26.62,64.43-80.36,142-111
		c125.65-49.63,237.2,0.63,255,9c64.36,30.28,103.25,75.01,122,100c3.16-1.12,71.77-24.11,123,20c30.27,26.07,37.23,60.72,39,72
		C703.33,1505.67,415.67,1505.33,128,1505z"/>
	<path class="st2" d="M1200,1347"/>
</g>
<g id="torni">
	<path class="st3" d="M392,1338c17.67-185.33,35.33-370.67,53-556V543.98h250.89v240C712.26,966.65,728.63,1149.33,745,1332
		c-25.76-15.58-86.93-47.82-171-48C482.47,1283.8,417,1321.71,392,1338z"/>
</g>
<g id="valkoiset_laatat">
	<path class="st4" d="M418,1067c100,0.33,200,0.67,300,1l15,147H404C408.67,1165.67,413.33,1116.33,418,1067z"/>
	<polygon class="st4" points="436,911 449.7,782 695.89,782 707.13,911 	"/>
	<rect x="336" y="656" class="st5" width="108" height="126"/>
	<rect x="696.5" y="656.5" class="st5" width="113" height="126"/>
	<path class="st5" d="M439.5,843.34c1.67-19.28,3.33-38.57,5-57.85c-36-0.66-72-1.33-108-1.99c0.86,7.23,3.78,22.75,16,35.91
		c11.44,12.31,25.01,16.07,39,19.95C401.61,842.15,418.28,845.42,439.5,843.34z"/>
	<path class="st5" d="M696.64,782c37.45,0.81,74.91,1.63,112.36,2.44c-0.5,6.73-2.36,18.18-10.04,29.34
		c-9.7,14.09-23.22,19.78-37.17,25.43c-11.7,4.74-32.4,11.32-60.27,10.76C699.89,827.31,698.27,804.66,696.64,782z"/>
	<rect x="449" y="548" class="st4" width="196" height="83"/>
	<rect x="443.5" y="657" class="st6" width="253" height="124.5"/>
</g>
<g id="katto">
	<polygon class="st3" points="390,544 569.87,439 747,544 	"/>
	<ellipse class="st3" cx="568.5" cy="406.5" rx="37.5" ry="28.5"/>
	<line class="st7" x1="569" y1="303" x2="569" y2="383"/>
</g>
<g id="firman_nimi">
	<g>
		<g>
			<path d="M230.67,1586.05c-6.21,0.77-8.18,1.96-8.48,6.5c-0.23,3.66-0.5,7.33-0.5,16.25v39.91h-4.97l-42.09-50.81v23.44
				c0,8.81,0.23,12.92,0.5,15.82c0.33,4.65,2.57,6.67,9.9,7.14v3.38h-24.63v-3.38c5.88-0.5,8.34-2,8.87-6.77
				c0.37-3.46,0.56-7.38,0.56-16.22v-24.33c0-3.12-0.2-5.12-2.06-7.58c-1.83-2.5-4.13-2.91-8.58-3.34v-3.38h17.93l39.61,46.4v-20.28
				c0-8.91-0.14-12.56-0.44-16.02c-0.3-4.37-2.15-6.23-10.34-6.73v-3.38h24.7V1586.05z"/>
			<path d="M274.42,1581.27c18.01,0,33.18,13.36,33.18,33.13c0,21.37-14.99,34.77-33.72,34.77c-19.72,0-34.05-14.6-34.05-33.73
				C239.84,1598.06,252.22,1581.27,274.42,1581.27z M272.75,1585.42c-10.55,0-19,9.79-19,27.84c0,17.5,7.93,31.72,21.67,31.72
				c10.41,0,18.41-9.13,18.41-27.78C293.83,1596.98,284.87,1585.42,272.75,1585.42z"/>
			<path d="M380.92,1648.34c-0.84,0-2.01-0.04-3.25-0.13c-10.81-0.57-14.58-2.99-18.07-7.89c-3.9-5.36-7.04-11.53-10.37-17.22
				c-1.68-2.88-3.04-3.48-6.91-3.48l-2.52-0.06v14.99c0,8.24,1.04,8.87,8.71,9.74v3.38h-29.24v-3.38c7.85-0.84,8.68-1.5,8.68-9.74
				v-38.86c0-8.11-1.03-8.93-8.68-9.64v-3.38h27.78c8.34,0,13.37,0.96,17.37,3.66c4.04,2.67,6.74,7.1,6.74,13.27
				c0,8.8-5.76,13.74-12.64,16.55c1.6,3.04,5.65,9.61,8.65,14.17c3.57,5.43,5.67,8.06,7.71,10.37c2.44,2.71,3.96,3.61,6.65,4.47
				L380.92,1648.34z M343.24,1615.71c4.62,0,7.92-0.74,10.22-2.71c3.51-2.83,4.98-6.71,4.98-11.91c0-10.64-6.45-14.47-12.79-14.47
				c-2.77,0-4.21,0.4-4.85,1c-0.77,0.63-1,1.77-1,3.98v24.11H343.24z"/>
			<path d="M440.24,1599.41c-1.03-4.11-2.88-7.74-3.92-9.28c-1.73-2.31-2.6-3.08-8.36-3.08h-7.66v47.6c0,8.19,0.93,8.97,10.04,9.63
				v3.38h-31.77v-3.38c8.78-0.67,9.65-1.41,9.65-9.63v-47.6h-7.15c-5.57,0-7.17,0.79-9,3.41c-1.33,1.93-2.52,5.12-3.82,9.01h-3.52
				c0.67-6.88,1.33-14.16,1.56-19.24h2.76c1.5,2.34,2.67,2.43,5.6,2.43h39.86c2.74,0,3.93-0.53,5.56-2.43h2.73
				c0.06,4.38,0.46,12.62,0.96,18.87L440.24,1599.41z"/>
			<path d="M524.81,1586.05c-7.98,0.8-8.71,1.37-8.71,9.7v38.93c0,8.33,0.83,8.83,8.71,9.6v3.38h-29.47v-3.38
				c8.04-1,8.71-1.27,8.71-9.6v-19.22h-29.52v19.22c0,8.3,0.86,8.73,8.61,9.6v3.38h-29.37v-3.38c7.65-0.84,8.68-1.27,8.68-9.6
				v-38.93c0-8.34-0.9-9.03-8.68-9.7v-3.38h29.37v3.38c-7.74,0.7-8.61,1.4-8.61,9.7v14.86h29.52v-14.86c0-8.3-1.03-8.94-8.71-9.7
				v-3.38h29.47V1586.05z"/>
			<path d="M598.9,1612.08c10.19,1.79,17.73,6.66,17.73,16.23c0,6.41-3.87,12.07-9.64,15.27c-5.13,2.84-11.15,4.1-18.41,4.1h-26.81
				v-3.38c7.98-0.8,8.68-1.44,8.68-9.67v-38.8c0-8.37-1.16-9.2-8.61-9.77v-3.38h28.93c7.57,0,12.33,1.11,16.05,3.5
				c3.63,2.4,6.03,6.17,6.03,11.14C612.85,1605.99,605.08,1610.75,598.9,1612.08z M586.62,1610.82c10.03,0,13.88-4.21,13.88-11.89
				c0-8.11-5.21-12.14-12.15-12.14c-2.54,0-4.15,0.3-5.02,0.87c-1,0.67-1.04,1.63-1.04,4.12v19.04H586.62z M582.3,1634.42
				c0,7.2,2.74,9.26,8.74,9.2c6.3-0.06,12.48-4.66,12.48-14.38c0-9.88-5.71-14.41-17.26-14.41h-3.96V1634.42z"/>
			<path d="M681.62,1631.06c-0.54,2.67-3.3,13.75-4.24,16.62h-50.75v-3.32c9.17-0.83,9.81-1.47,9.81-9.8v-38.66
				c0-8.64-1.17-9.21-8.21-9.84v-3.38h31.84c10.12,0,13.76-0.1,15.09-0.2c0.1,2.04,0.56,10,0.96,15.89l-3.58,0.5
				c-0.9-3.4-2.36-6.8-3.85-8.71c-1.73-2.46-3.38-3.09-8.8-3.09h-7.55c-3.56,0-3.89,0.23-3.89,3.46v21.32h10.26
				c6.27,0,7.09-1.5,8.49-8.5h3.62v21.71h-3.62c-1.5-7.33-2.29-8.46-8.58-8.46h-10.16v18.15c0,6.94,0.9,8.51,6.68,8.61h7.87
				c5.78,0,7.1-0.77,9.3-3.44c2.29-2.62,4.33-6.46,5.86-9.72L681.62,1631.06z"/>
			<path d="M723.37,1647.67v-3.38c6.37-0.87,6.65-1.93,5.25-6.06c-1.1-3.32-2.84-7.99-4.55-12.8h-20.24
				c-1.28,3.59-2.71,7.43-3.85,10.88c-2.13,6.37-0.08,7.17,7.92,7.98v3.38h-24.14v-3.38c6.3-0.8,7.9-1.63,11.34-10.24l20.77-51.98
				l4.24-0.79c6.37,17.3,13.2,35.48,19.63,52.39c3.53,9.09,4.42,9.83,11.14,10.63v3.38H723.37z M714.15,1597.95
				c-3,7.69-6.02,15.23-8.69,22.74h16.88L714.15,1597.95z"/>
			<path d="M817,1630.89c-1.4,4.93-4,12.39-5.57,15.75c-2.71,0.6-10.77,2.53-18.37,2.53c-25.85,0-37.34-16.81-37.34-33.27
				c0-20.6,15.7-34.63,39.14-34.63c8.67,0,16.12,2,18.9,2.37c0.46,4.63,1.17,11.54,1.9,16.15l-3.69,0.7
				c-2.07-7.42-4.86-11.26-10.09-13.36c-2.47-1.07-6.25-1.58-9.33-1.58c-15.2,0-22.99,12.14-22.99,28.12
				c0,18.65,9.61,31.05,24.19,31.05c9.03,0,14.42-4.5,19.72-15.16L817,1630.89z"/>
			<path d="M862.92,1581.27c18.01,0,33.18,13.36,33.18,33.13c0,21.37-14.99,34.77-33.72,34.77c-19.72,0-34.05-14.6-34.05-33.73
				C828.33,1598.06,840.71,1581.27,862.92,1581.27z M861.24,1585.42c-10.55,0-19,9.79-19,27.84c0,17.5,7.93,31.72,21.67,31.72
				c10.41,0,18.41-9.13,18.41-27.78C882.32,1596.98,873.37,1585.42,861.24,1585.42z"/>
			<path d="M977.26,1586.05c-6.21,0.77-8.18,1.96-8.48,6.5c-0.23,3.66-0.5,7.33-0.5,16.25v39.91h-4.97l-42.09-50.81v23.44
				c0,8.81,0.24,12.92,0.5,15.82c0.33,4.65,2.57,6.67,9.9,7.14v3.38h-24.63v-3.38c5.88-0.5,8.34-2,8.87-6.77
				c0.36-3.46,0.56-7.38,0.56-16.22v-24.33c0-3.12-0.2-5.12-2.06-7.58c-1.84-2.5-4.13-2.91-8.58-3.34v-3.38h17.93l39.61,46.4v-20.28
				c0-8.91-0.13-12.56-0.43-16.02c-0.3-4.37-2.15-6.23-10.34-6.73v-3.38h24.7V1586.05z"/>
		</g>
	</g>
</g>
</svg>
